<?xml version="1.0" encoding="UTF-8"?>
<svg id="Layer_1" data-name="Layer 1" xmlns="http://www.w3.org/2000/svg" viewBox="0 0 1254 1254">
  <defs>
    <style>
      .cls-1 {
        fill: #bdb0d3;
      }

      .cls-2 {
        fill: #94c5bb;
      }

      .cls-3 {
        fill: #b1a0c9;
      }

      .cls-4 {
        fill: #8db3dd;
      }

      .cls-5 {
        fill: #82acd9;
      }

      .cls-6 {
        fill: #8bc1b6;
      }

      .cls-7 {
        fill: #b4a4cc;
      }

      .cls-8 {
        fill: #c3b8d7;
      }

      .cls-9 {
        fill: #a8c5e6;
      }

      .cls-10 {
        fill: #7fbcb0;
      }

      .cls-11 {
        fill: #5191cb;
      }

      .cls-12 {
        fill: #6fa0d3;
      }

      .cls-13 {
        fill: #7d6fad;
      }

      .cls-14 {
        fill: #6ab3a5;
      }

      .cls-15 {
        fill: #85bfb3;
      }

      .cls-16 {
        fill: #0b1632;
      }

      .cls-17 {
        fill: #c2b7d7;
      }

      .cls-18 {
        fill: #6b9fd3;
      }

      .cls-19 {
        fill: #aacfc5;
      }

      .cls-20 {
        fill: #429f8e;
      }

      .cls-21 {
        fill: #9fcac0;
      }

      .cls-22 {
        fill: #9ac7be;
      }

      .cls-23 {
        fill: #87a7d4;
      }

      .cls-24 {
        fill: #75a5d6;
      }

      .cls-25 {
        fill: #3f9d8c;
      }

      .cls-26 {
        fill: #7d70ae;
      }

      .cls-27 {
        fill: #162746;
      }

      .cls-28 {
        fill: #70b6a8;
      }

      .cls-29 {
        fill: #fdfdfd;
      }

      .cls-30 {
        fill: #abd0c6;
      }
    </style>
  </defs>
  <path class="cls-29" d="M0,1254V0h1254v1254H0ZM306.05,144.49c0-5.02-4.07-9.09-9.09-9.09s-9.09,4.07-9.09,9.09,4.07,9.09,9.09,9.09,9.09-4.07,9.09-9.09ZM451.29,150.54c0-7.96-6.46-14.42-14.42-14.42s-14.42,6.46-14.42,14.42,6.46,14.42,14.42,14.42,14.42-6.46,14.42-14.42ZM523.67,144.63c0-4.31-3.49-7.8-7.8-7.8s-7.8,3.49-7.8,7.8,3.49,7.8,7.8,7.8,7.8-3.49,7.8-7.8ZM385.65,157.12c0-8.08-6.55-14.63-14.63-14.63s-14.63,6.55-14.63,14.63,6.55,14.63,14.63,14.63,14.63-6.55,14.63-14.63ZM704.63,156.53c0-6.83-5.54-12.36-12.36-12.36s-12.36,5.54-12.36,12.36,5.54,12.36,12.36,12.36,12.36-5.54,12.36-12.36ZM947.68,161.78c0-8.94-7.25-16.19-16.19-16.19s-16.19,7.25-16.19,16.19,7.25,16.19,16.19,16.19,16.19-7.25,16.19-16.19ZM232.61,301.11c10.6-.34,19.45-5.24,24.54-14.14l36.26-63.49c6.61-11.58,6.34-25.12-.37-36.55-9.29-15.81-22.95-28.85-40.23-35.57-12.54-4.88-26.26-3.25-38.77,1.87-29.7,12.16-50.76,38.95-57.48,70.28-3.22,15-4.22,29.69-.59,44.45,4.34,17.61,17.94,31.81,36.27,33.53,13.33,1.25,26.24.08,40.37-.38ZM815.34,162.48c0-5.11-4.14-9.24-9.24-9.24s-9.24,4.14-9.24,9.24,4.14,9.24,9.24,9.24,9.24-4.14,9.24-9.24ZM875.78,167.83c0-8.15-6.61-14.76-14.76-14.76s-14.76,6.61-14.76,14.76,6.61,14.76,14.76,14.76,14.76-6.61,14.76-14.76ZM576.51,165.88c0-6.38-5.17-11.55-11.55-11.55s-11.55,5.17-11.55,11.55,5.17,11.55,11.55,11.55,11.55-5.17,11.55-11.55ZM611.17,163.24c0-3.92-3.18-7.1-7.1-7.1s-7.1,3.18-7.1,7.1,3.18,7.1,7.1,7.1,7.1-3.18,7.1-7.1ZM534.44,282.87c24.82-16.05,26.32-54.81,14.78-81.11-8.82-20.09-25.55-35.3-46.27-41.54-13.18-3.96-25.84-2.17-36.83,6.02-13.98,10.42-24.05,24.88-29.12,41.69-10.1,33.5,17.52,61.04,46.3,75.93,15.92,8.24,35.33,9.22,51.14-1ZM987.04,316.76c17.62.19,34.78.25,52.23-2.63,34.32-5.66,57.9-37.76,55.69-72.09-1.28-19.92-9.02-37.25-22.05-52-26.59-30.08-68.66-43.73-101.93-15.83-15.86,13.31-27.3,31.7-32.78,51.86-3.07,11.29-2.38,22.74,2.59,33.23,7.43,15.69,14.98,30.9,24.52,45.2,4.88,7.32,13.01,12.15,21.72,12.24ZM663.83,182.36c0-9.27-7.51-16.78-16.78-16.78s-16.78,7.51-16.78,16.78,7.51,16.78,16.78,16.78,16.78-7.51,16.78-16.78ZM330.11,175.08c0-4.47-3.62-8.09-8.09-8.09s-8.09,3.62-8.09,8.09,3.62,8.09,8.09,8.09,8.09-3.62,8.09-8.09ZM760.92,318.44c9.16-.9,17.41-5.98,22-13.55,10.07-16.61,18.85-33.4,26.52-51.27,4.6-10.7,4.8-22.22,1.01-33.22-5.26-15.26-14.43-28.71-26.35-39.32-15.35-13.67-35.28-17.66-54.58-10.42-45.45,17.05-93.42,92.35-63.14,129.98,9.54,11.85,23.22,19.17,38.75,20.03,18.58,1.02,36.65-.32,55.8-2.21ZM423.06,193.4c0-5.33-4.32-9.66-9.66-9.66s-9.66,4.32-9.66,9.66,4.32,9.66,9.66,9.66,9.66-4.32,9.66-9.66ZM911.72,201.6c0-7.39-5.99-13.39-13.39-13.39s-13.39,5.99-13.39,13.39,5.99,13.39,13.39,13.39,13.39-5.99,13.39-13.39ZM385.36,379.93c11.07-2.76,19.79-8.88,25.78-17.79,8.31-12.35,15.59-24.87,21.46-38.46,8.64-19.99,7.91-41.15-1.86-60.41-12.47-24.56-37.06-55.12-60.92-67.94-23.47-12.61-42.21,3.34-55.22,24.34-15.25,24.62-29.43,49.1-43.05,74.7-5.26,9.89-5.41,21.2-1.4,31.51,6.9,17.71,13.94,34.63,22.28,51.6,5.17,10.51,15.75,16.87,27.64,15.26,22.01-2.99,43.21-7.33,65.28-12.83ZM611.2,209.3c0-8.91-7.23-16.14-16.14-16.14s-16.14,7.23-16.14,16.14,7.23,16.14,16.14,16.14,16.14-7.23,16.14-16.14ZM846.58,203.54c0-5.87-4.76-10.63-10.63-10.63s-10.63,4.76-10.63,10.63,4.76,10.63,10.63,10.63,10.63-4.76,10.63-10.63ZM653.67,221.57c0-3.13-2.54-5.67-5.67-5.67s-5.67,2.54-5.67,5.67,2.54,5.67,5.67,5.67,5.67-2.54,5.67-5.67ZM915.68,396.57l31.39-54.45c5.94-10.31,6-22.31.78-33.03-8.08-16.61-15.68-32.77-25.46-48.61s-26.29-28.69-43.78-35.78c-12.83-5.19-25.96-1.51-34.97,7.87-4.28,4.45-8.09,8.68-11.01,14.21l-33.53,63.26c-5.06,9.54-5.4,20.74-.38,30.36l31.8,60.97c5.16,9.89,15.28,15.24,26.53,14.56,22.22-1.34,48.55-1.86,58.64-19.35ZM639.03,251.29c0-6.32-5.13-11.45-11.45-11.45s-11.45,5.13-11.45,11.45,5.13,11.45,11.45,11.45,11.45-5.13,11.45-11.45ZM593.67,260.35c0-6.08-4.93-11.02-11.02-11.02s-11.02,4.93-11.02,11.02,4.93,11.02,11.02,11.02,11.02-4.93,11.02-11.02ZM641.14,301.07c0-9.21-7.47-16.68-16.68-16.68s-16.68,7.47-16.68,16.68,7.47,16.68,16.68,16.68,16.68-7.47,16.68-16.68ZM1118.31,294.42c0-4.78-3.88-8.66-8.66-8.66s-8.66,3.88-8.66,8.66,3.88,8.66,8.66,8.66,8.66-3.88,8.66-8.66ZM472.69,301.88c0-4.41-3.57-7.98-7.98-7.98s-7.98,3.57-7.98,7.98,3.57,7.98,7.98,7.98,7.98-3.57,7.98-7.98ZM586.68,304.17c0-5.34-4.33-9.66-9.66-9.66s-9.66,4.33-9.66,9.66,4.33,9.66,9.66,9.66,9.66-4.33,9.66-9.66ZM158.27,308.9c0-4.81-3.9-8.71-8.71-8.71s-8.71,3.9-8.71,8.71,3.9,8.71,8.71,8.71,8.71-3.9,8.71-8.71ZM542.98,419.07c10.42-11.07,17.46-24.06,19.65-39.19,4.38-30.33-1.64-79.33-36.77-75.98-24.39,2.32-51.71,16.63-71.06,31.89-12,9.46-21.48,20.97-28.39,34.54-4.69,9.2-4.77,19.6-.83,29.09,4.82,11.61,10.12,22.67,16.67,33.22,7.85,12.63,21.02,18.47,35.83,17.54,22.39-1.4,49.7-14.97,64.9-31.11ZM243.21,463.72c8.91-6.65,14.79-15.24,20.29-24.24,11.53-18.87,21.97-33.61,13.73-54.68-7.06-18.05-14.06-35.4-22-52.94-4.36-9.63-13.71-15.17-24.23-14.79l-37.37,1.38c-24.79.91-39.51,20.44-43,44.21-2.85,19.43-2.81,38.91-.98,58.53.84,9.07,2.94,17.51,6.42,25.74,8.18,19.34,26.77,30.92,48.02,30.07,13.92-.56,27.57-4.69,39.11-13.29ZM1089.98,324.34c0-4.27-3.46-7.73-7.73-7.73s-7.73,3.46-7.73,7.73,3.46,7.73,7.73,7.73,7.73-3.46,7.73-7.73ZM669.26,338.32c0-6.06-4.91-10.98-10.98-10.98s-10.98,4.91-10.98,10.98,4.91,10.98,10.98,10.98,10.98-4.91,10.98-10.98ZM1052.29,473.13c21.71-23.79,34.26-63.81,30.04-95.54-3.35-25.2-22.69-47.6-49.39-46.32l-43.54,2.08c-11.21.54-21.05,5.51-26.77,15.45l-30.53,53.11c-5.43,9.45-3.8,20.7,2.99,29.12,13.43,16.64,27.4,32.14,43.33,46.41,22.43,20.09,52.39,19.21,73.86-4.31ZM756.54,460.08c24.88,4.43,48.83-8.78,57.65-31.94,2.64-6.94,1.93-15.43-1.16-22.32-9.05-20.24-18.63-39.72-30.29-58.33-4.93-7.86-13.96-12.61-22.85-12.14l-38.52,2.02c-17.07.89-32.89,9.27-43.1,22.69-10.38,13.64-12.33,30.18-4.69,45.38,14.98,29.81,49.46,48.68,82.97,54.65ZM611.24,352.58c0-7.94-6.43-14.37-14.37-14.37s-14.37,6.43-14.37,14.37,6.43,14.37,14.37,14.37,14.37-6.43,14.37-14.37ZM1118.22,355.88c0-5.9-4.78-10.68-10.68-10.68s-10.68,4.78-10.68,10.68,4.78,10.68,10.68,10.68,10.68-4.78,10.68-10.68ZM648.18,389.97c0-9.26-7.51-16.77-16.77-16.77s-16.77,7.51-16.77,16.77,7.51,16.77,16.77,16.77,16.77-7.51,16.77-16.77ZM593.18,402.23c0-4.28-3.47-7.74-7.74-7.74s-7.74,3.47-7.74,7.74,3.47,7.74,7.74,7.74,7.74-3.47,7.74-7.74ZM394.18,537.06c15.81-18.33,25.79-40.39,32.09-63.78,3.08-11.44,3.12-22.66-.82-33.91s-8.83-21.75-15.28-31.44c-5.86-8.81-15.74-12.93-26.36-10.89l-71.98,13.8c-9.11,1.75-16.53,8.03-21.51,15.44-7.06,10.51-13.24,20.82-18.82,32.15-8.85,17.97-6.87,37.92,4.82,54.53,13.39,19.02,32.77,33.5,54.71,41.8,23.99,9.08,46.54,1.53,63.14-17.71ZM1119.13,418.74c0-5.7-4.62-10.31-10.31-10.31s-10.31,4.62-10.31,10.31,4.62,10.31,10.31,10.31,10.31-4.62,10.31-10.31ZM577.1,433.43c0-4.59-3.72-8.31-8.31-8.31s-8.31,3.72-8.31,8.31,3.72,8.31,8.31,8.31,8.31-3.72,8.31-8.31ZM671.63,440.88c0-6.89-5.59-12.48-12.48-12.48s-12.48,5.59-12.48,12.48,5.59,12.48,12.48,12.48,12.48-5.59,12.48-12.48ZM960.87,507.85c2.82-10.55.11-20.66-6.64-29.18-11.77-14.88-24.08-28.85-37.53-42.25-5.89-5.87-14.56-8.71-22.69-7.8l-44.57,4.99c-8.22.92-15.35,6.07-20.72,12.14-28.62,32.32-10.66,84.71,18.56,111.62,17.68,16.28,41.28,19.47,62.17,7.91,21.01-11.63,45.26-34.33,51.42-57.42ZM616.71,439.96c0-4.72-3.83-8.55-8.55-8.55s-8.55,3.83-8.55,8.55,3.83,8.55,8.55,8.55,8.55-3.83,8.55-8.55ZM544.82,452.07c0-3.7-3-6.71-6.71-6.71s-6.71,3-6.71,6.71,3,6.71,6.71,6.71,6.71-3,6.71-6.71ZM1105.98,476.24c0-8.32-6.75-15.07-15.07-15.07s-15.07,6.75-15.07,15.07,6.75,15.07,15.07,15.07,15.07-6.75,15.07-15.07ZM507.91,473.2c0-4.54-3.68-8.22-8.22-8.22s-8.22,3.68-8.22,8.22,3.68,8.22,8.22,8.22,8.22-3.68,8.22-8.22ZM468.37,479.43c0-6.69-5.43-12.12-12.12-12.12s-12.12,5.43-12.12,12.12,5.43,12.12,12.12,12.12,12.12-5.43,12.12-12.12ZM158.72,486.24c0-5.27-4.28-9.55-9.55-9.55s-9.55,4.28-9.55,9.55,4.28,9.55,9.55,9.55,9.55-4.28,9.55-9.55ZM796.86,490.89c0-6.75-5.47-12.21-12.21-12.21s-12.21,5.47-12.21,12.21,5.47,12.21,12.21,12.21,12.21-5.47,12.21-12.21ZM703.38,672.09c7.88-1.34,14.43-6.61,14.43-14.21l.02-24.94c0-6.59-6.57-13.06-13.99-13.07l-118.64-.11c-3.27,0-5.24-2.71-5.24-5.72l.03-66.07c0-1.81,2.13-4.82,4.12-4.83l141.7-.12c10.11,0,17.3-8.78,17.26-17.8l-.09-21.4c-.04-8.96-7.33-16.65-17.22-16.64l-185.31.18c-11.09.01-21.15,9.9-21.16,21.12l-.08,277.17c0,12.83,10.42,22.19,22.94,22.2l188.38.09c9.44-1.61,16.82-7.85,16.79-17.46l-.08-20.61c-.04-9.6-7.93-17.26-18.21-17.28l-142.95-.21c-2.92.63-6.09-1.53-6.1-4.52l-.06-70.86c0-2.17,1.88-4.9,4.24-4.9h119.2ZM250.07,502.18c0-7.36-5.97-13.33-13.33-13.33s-13.33,5.97-13.33,13.33,5.97,13.33,13.33,13.33,13.33-5.97,13.33-13.33ZM198.57,512.86c0-6.63-5.37-12-12-12s-12,5.37-12,12,5.37,12,12,12,12-5.37,12-12ZM1058.15,516.91c0-6.55-5.31-11.87-11.87-11.87s-11.87,5.31-11.87,11.87,5.31,11.87,11.87,11.87,11.87-5.31,11.87-11.87ZM1015.18,528.7c0-11.07-8.97-20.04-20.04-20.04s-20.04,8.97-20.04,20.04,8.97,20.04,20.04,20.04,20.04-8.97,20.04-20.04ZM482.63,521.04c0-3.93-3.19-7.12-7.12-7.12s-7.12,3.19-7.12,7.12,3.19,7.12,7.12,7.12,7.12-3.19,7.12-7.12ZM454.83,529.81c0-8.26-6.7-14.96-14.96-14.96s-14.96,6.7-14.96,14.96,6.7,14.96,14.96,14.96,14.96-6.7,14.96-14.96ZM1107.87,534.18c0-8.63-7-15.63-15.63-15.63s-15.63,7-15.63,15.63,7,15.63,15.63,15.63,15.63-7,15.63-15.63ZM798.93,540.98c0-5.53-4.48-10.01-10.01-10.01s-10.01,4.48-10.01,10.01,4.48,10.01,10.01,10.01,10.01-4.48,10.01-10.01ZM234.98,552.42c0-9.35-7.58-16.94-16.94-16.94s-16.94,7.58-16.94,16.94,7.58,16.94,16.94,16.94,16.94-7.58,16.94-16.94ZM274.9,544.07c0-5-4.05-9.05-9.05-9.05s-9.05,4.05-9.05,9.05,4.05,9.05,9.05,9.05,9.05-4.05,9.05-9.05ZM176.42,564.46c0-8.09-6.56-14.65-14.65-14.65s-14.65,6.56-14.65,14.65,6.56,14.65,14.65,14.65,14.65-6.56,14.65-14.65ZM964.71,563.51c0-5.07-4.11-9.18-9.18-9.18s-9.18,4.11-9.18,9.18,4.11,9.18,9.18,9.18,9.18-4.11,9.18-9.18ZM1039.52,562.15c0-4.01-3.25-7.26-7.26-7.26s-7.26,3.25-7.26,7.26,3.25,7.26,7.26,7.26,7.26-3.25,7.26-7.26ZM421.9,581.64c0-11.48-9.31-20.79-20.79-20.79s-20.79,9.31-20.79,20.79,9.31,20.79,20.79,20.79,20.79-9.31,20.79-20.79ZM479.04,573.48c0-5.84-4.74-10.58-10.58-10.58s-10.58,4.74-10.58,10.58,4.74,10.58,10.58,10.58,10.58-4.74,10.58-10.58ZM1073.43,570.89c0-4.49-3.64-8.13-8.13-8.13s-8.13,3.64-8.13,8.13,3.64,8.13,8.13,8.13,8.13-3.64,8.13-8.13ZM312.35,580.32c0-8.88-7.2-16.08-16.08-16.08s-16.08,7.2-16.08,16.08,7.2,16.08,16.08,16.08,16.08-7.2,16.08-16.08ZM835.39,580.63c0-7.94-6.44-14.37-14.37-14.37s-14.37,6.44-14.37,14.37,6.44,14.37,14.37,14.37,14.37-6.44,14.37-14.37ZM357.57,585.93c0-4.81-3.9-8.71-8.71-8.71s-8.71,3.9-8.71,8.71,3.9,8.71,8.71,8.71,8.71-3.9,8.71-8.71ZM1009.5,727.99c11.92.62,22.48-2.23,31.54-9.03,15.15-11.37,27.23-26.68,32.58-45.15,6.85-23.69,2.51-49.14-13.58-67.92-15.17-17.7-37.66-27.97-60.94-28.63-30.23-.86-53.68,29.76-66.43,55.41-6.11,12.29-10.59,25.42-10.31,39.32.27,13.6,6.17,25.66,12.29,37.32,4.92,9.37,13.28,15.46,24.18,16.03l50.68,2.65ZM1115.33,597.61c0-8.77-7.11-15.89-15.89-15.89s-15.89,7.11-15.89,15.89,7.11,15.89,15.89,15.89,15.89-7.11,15.89-15.89ZM276.54,717.07c9.37-2.6,16.85-8.51,20.03-17.56,4.02-11.45,7.08-23.23,8.08-35.59,1.91-23.6-27.1-55.73-46.3-70.02-16.04-11.93-35.86-11.73-51.88-.37-10.96,7.77-18.6,17.98-25.04,30.02-12.35,23.09-16.92,49.93-9.2,75.17,4.1,13.41,12.61,24.74,24.85,31.07,9.01,4.65,19.33,3.96,28.95,1.29l50.5-14ZM786.69,595.42c0-5.57-4.51-10.08-10.08-10.08s-10.08,4.51-10.08,10.08,4.51,10.08,10.08,10.08,10.08-4.51,10.08-10.08ZM929.94,600.46c2.03-4.88.59-10.14-3.02-12.88-3.36-2.55-8.23-3.05-12.27-1.02-4.98,2.49-6.78,7.41-5.97,12.4s4.84,8.48,9.88,8.72c4.65.22,9.22-2.05,11.38-7.21ZM883.53,605.48c0-8.8-7.13-15.93-15.93-15.93s-15.93,7.13-15.93,15.93,7.13,15.93,15.93,15.93,15.93-7.13,15.93-15.93ZM452.35,613.15c0-5.92-4.8-10.72-10.72-10.72s-10.72,4.8-10.72,10.72,4.8,10.72,10.72,10.72,10.72-4.8,10.72-10.72ZM167.27,615.29c0-4.51-3.65-8.16-8.16-8.16s-8.16,3.65-8.16,8.16,3.65,8.16,8.16,8.16,8.16-3.65,8.16-8.16ZM323.5,620.57c0-4.24-3.44-7.68-7.68-7.68s-7.68,3.44-7.68,7.68,3.44,7.68,7.68,7.68,7.68-3.44,7.68-7.68ZM356.34,622.12c0-3.95-3.2-7.15-7.15-7.15s-7.15,3.2-7.15,7.15,3.2,7.15,7.15,7.15,7.15-3.2,7.15-7.15ZM393.67,625.48c0-4.21-3.41-7.62-7.62-7.62s-7.62,3.41-7.62,7.62,3.41,7.62,7.62,7.62,7.62-3.41,7.62-7.62ZM816.43,628.03c0-4.82-3.91-8.73-8.73-8.73s-8.73,3.91-8.73,8.73,3.91,8.73,8.73,8.73,8.73-3.91,8.73-8.73ZM907.47,645.84c0-6.89-5.59-12.48-12.48-12.48s-12.48,5.59-12.48,12.48,5.59,12.48,12.48,12.48,12.48-5.59,12.48-12.48ZM852.27,647.9c0-4.88-3.95-8.83-8.83-8.83s-8.83,3.95-8.83,8.83,3.95,8.83,8.83,8.83,8.83-3.95,8.83-8.83ZM422.6,647.64c0-4.12-3.34-7.47-7.47-7.47s-7.47,3.34-7.47,7.47,3.34,7.47,7.47,7.47,7.47-3.34,7.47-7.47ZM1111.3,650.4c0-5.16-4.18-9.34-9.34-9.34s-9.34,4.18-9.34,9.34,4.18,9.34,9.34,9.34,9.34-4.18,9.34-9.34ZM408.18,778.6c25.84-15.56,30.33-49.44,18.92-76.61-10.8-25.72-38.1-52.11-65.95-55.78-17.23-2.27-32.27,6.19-38.8,22.31-5.35,13.19-8.65,27.16-11.31,41.43-1.6,8.58.77,17.39,6.01,24.05l39.08,49.71c5.91,7.52,15.68,10.08,24.48,6.98,9.49-3.34,18.62-6.71,27.57-12.1ZM472.75,669.03c0-9.56-7.75-17.32-17.32-17.32s-17.32,7.75-17.32,17.32,7.75,17.32,17.32,17.32,17.32-7.75,17.32-17.32ZM804.75,671.01c0-9.35-7.58-16.93-16.93-16.93s-16.93,7.58-16.93,16.93,7.58,16.93,16.93,16.93,16.93-7.58,16.93-16.93ZM152.28,676.04c0-4.68-3.79-8.47-8.47-8.47s-8.47,3.79-8.47,8.47,3.79,8.47,8.47,8.47,8.47-3.79,8.47-8.47ZM819.36,817.27l35.57.41c9.16.11,16.87-6.49,21.94-13.87l39.41-57.31c7.65-11.13,6.48-22.41,1.59-34.3-11.43-27.79-39.8-45.15-69.96-38.08-35.02,8.21-57.31,54.72-62.02,89.74-3.56,26.44,8.76,53.13,33.48,53.41ZM1110.26,709.67c0-8.66-7.02-15.68-15.68-15.68s-15.68,7.02-15.68,15.68,7.02,15.68,15.68,15.68,15.68-7.02,15.68-15.68ZM779.75,721.49c0-5.22-4.23-9.45-9.45-9.45s-9.45,4.23-9.45,9.45,4.23,9.45,9.45,9.45,9.45-4.23,9.45-9.45ZM164.12,723.15c0-4.46-3.61-8.07-8.07-8.07s-8.07,3.61-8.07,8.07,3.61,8.07,8.07,8.07,8.07-3.61,8.07-8.07ZM470.58,725.11c0-5.61-4.55-10.16-10.16-10.16s-10.16,4.55-10.16,10.16,4.55,10.16,10.16,10.16,10.16-4.55,10.16-10.16ZM243.17,928.61l70.85-33.44c9.02-4.26,16.45-11.02,19.61-20.56l15.43-46.53c3.8-11.47,1.77-23.05-5.25-33.01-12.35-17.53-25.37-34.15-39.4-50.32-7.43-8.56-17.22-12.75-28.53-10.92-11.54,1.87-22.79,4.91-33.5,9.62s-19.71,12.53-27.22,21.78c-13.9,17.12-25.96,34.85-36.73,54.12-5.63,10.06-9.89,20.27-12.53,31.45-6.15,26.01,3.24,51.79,22.62,69.69,17.12,15.82,32.73,18.47,54.65,8.13ZM1072.76,749.45c0-8.49-6.88-15.37-15.37-15.37s-15.37,6.88-15.37,15.37,6.88,15.37,15.37,15.37,15.37-6.88,15.37-15.37ZM951.19,905.54l42.17-4.09c14.17-1.38,25.16-8.58,33.21-19.95,9.18-12.96,16.79-26.5,18.01-42.83,1.94-26-3.87-52.02-16.29-74.75-6.28-11.5-16.72-19.91-29.67-20.38l-44.68-1.63c-8.93-.33-17.17,5.33-22.78,12.42-15.8,19.95-29.86,40.64-43.28,62.34-5.95,9.63-6.83,21.52-1.78,31.31l23.77,46.12c4.41,8.56,13.88,12.97,23.39,12.44l17.95-.99ZM492.06,754.35c0-4.58-3.71-8.29-8.29-8.29s-8.29,3.71-8.29,8.29,3.71,8.29,8.29,8.29,8.29-3.71,8.29-8.29ZM170.49,781.88c9.55,1.77,17.33-3.91,19.77-11.97s-1.23-16.51-9.1-19.92c-9.45-4.08-19.59.99-22.84,9.87s1.42,20.02,12.17,22.02ZM1112.2,766.52c0-5.38-4.36-9.74-9.74-9.74s-9.74,4.36-9.74,9.74,4.36,9.74,9.74,9.74,9.74-4.36,9.74-9.74ZM462.94,779.45c0-6.94-5.62-12.56-12.56-12.56s-12.56,5.62-12.56,12.56,5.62,12.56,12.56,12.56,12.56-5.62,12.56-12.56ZM1084.14,797.77c0-6.81-5.52-12.33-12.33-12.33s-12.33,5.52-12.33,12.33,5.52,12.33,12.33,12.33,12.33-5.52,12.33-12.33ZM392.56,944.76c7.95,8.37,19.35,8.45,28.2,1.94,16.12-11.85,31.54-24.06,46.07-37.58,22.1-20.55,23.76-52.51,4.08-75.28-12.08-13.98-27.24-24.99-44.59-32.08-20.43-8.34-52.75,4.4-60.59,28.12l-16.33,49.43c-2.97,8.99-.91,19.06,5.53,25.84l37.62,39.61ZM491.81,807.55c0-4.76-3.86-8.61-8.61-8.61s-8.61,3.86-8.61,8.61,3.86,8.61,8.61,8.61,8.61-3.86,8.61-8.61ZM161.12,819.58c0-3.91-3.17-7.08-7.08-7.08s-7.08,3.17-7.08,7.08,3.17,7.08,7.08,7.08,7.08-3.17,7.08-7.08ZM782.23,822.34c0-5.47-4.43-9.9-9.9-9.9s-9.9,4.43-9.9,9.9,4.43,9.9,9.9,9.9,9.9-4.43,9.9-9.9ZM1116.93,827.18c0-6.32-5.12-11.44-11.44-11.44s-11.44,5.12-11.44,11.44,5.12,11.44,11.44,11.44,11.44-5.12,11.44-11.44ZM1075.09,838.81c0-3.71-3.01-6.72-6.72-6.72s-6.72,3.01-6.72,6.72,3.01,6.72,6.72,6.72,6.72-3.01,6.72-6.72ZM876.53,955.06l15.56-22.05c6.34-8.98,7.82-20.71,2.59-30.97l-25.86-50.79c-9.05-17.77-26.73-17.72-44.81-17.5-9.86.12-19.07,1.79-27.62,6.72-26.88,15.52-50.27,48.95-35.54,78.85,7.9,16.04,16.3,31.63,26.46,46.16,18.09,25.88,67.88,19.82,89.23-10.42ZM524.07,847.14c0-6.26-5.07-11.33-11.33-11.33s-11.33,5.07-11.33,11.33,5.07,11.33,11.33,11.33,11.33-5.07,11.33-11.33ZM745.46,856.57c0-8.52-6.9-15.42-15.42-15.42s-15.42,6.9-15.42,15.42,6.9,15.42,15.42,15.42,15.42-6.9,15.42-15.42ZM679.66,855.02c0-4.84-3.93-8.77-8.77-8.77s-8.77,3.93-8.77,8.77,3.93,8.77,8.77,8.77,8.77-3.93,8.77-8.77ZM640.67,868.22c0-8.16-6.61-14.77-14.77-14.77s-14.77,6.61-14.77,14.77,6.61,14.77,14.77,14.77,14.77-6.61,14.77-14.77ZM569.46,873c0-8.66-7.02-15.69-15.69-15.69s-15.69,7.02-15.69,15.69,7.02,15.69,15.69,15.69,15.69-7.02,15.69-15.69ZM1093.28,962.53c24.56-12.48,29.81-51.79,24.2-78.01-2.07-9.66-8.14-18.79-17.31-22.58-15.18-6.27-33.58-2.47-45.02,9.04-7.99,8.03-14.17,16.76-19.84,26.29-4.63,7.79-4.79,17.52.91,24.56l29.05,35.87c6.66,8.22,17.99,9.91,28.01,4.82ZM705.52,884.12c0-6.1-4.94-11.04-11.04-11.04s-11.04,4.94-11.04,11.04,4.94,11.04,11.04,11.04,11.04-4.94,11.04-11.04ZM514.7,886.8c0-3.89-3.16-7.05-7.05-7.05s-7.05,3.16-7.05,7.05,3.16,7.05,7.05,7.05,7.05-3.16,7.05-7.05ZM740.36,894.69c0-2.99-2.42-5.41-5.41-5.41s-5.41,2.42-5.41,5.41,2.42,5.41,5.41,5.41,5.41-2.42,5.41-5.41ZM608.9,908.37c0-6.28-5.09-11.37-11.37-11.37s-11.37,5.09-11.37,11.37,5.09,11.37,11.37,11.37,11.37-5.09,11.37-11.37ZM658.48,907.3c0-5.65-4.58-10.24-10.24-10.24s-10.24,4.58-10.24,10.24,4.58,10.24,10.24,10.24,10.24-4.58,10.24-10.24ZM489.62,1078.01c24.86-8.65,45.6-23.27,63.13-42.23,27.17-29.37,48.9-74,21.26-107.82-8.48-10.37-20.22-16.78-33.8-18.32-18.76-2.12-46.6-.04-61.13,11.54l-49.41,39.39c-9.4,7.49-15.66,17.19-15.66,29.45v42.98c-.01,12.46,4.51,24.28,12.19,33.68,15.71,19.23,39.86,19.53,63.41,11.33ZM771.68,1000.69c3.62-11.26,3.58-22.81-2.29-33.12l-21.39-37.55c-11.37-17.67-32.15-25.18-52.57-18.16-24.66,8.48-44.62,29.73-50.76,55.52-7.04,29.58,6.87,59.06,31.84,75.1,15.66,10.06,33.79,13.91,51.88,8.79,22.53-6.37,36.27-28.73,43.3-50.58ZM366.08,1077.24c19.03-9.83,31.01-27.84,30.78-49.2l-.43-39.1c-.13-11.84-5.43-21.67-13.44-29.94l-39.83-41.1c-7.26-7.5-18.44-8.61-28.4-4.92-19.78,7.33-38.53,16.32-56.83,26.93-14.11,8.18-25.58,19.16-34.22,32.7-25.02,39.22-6.61,87.74,35.26,106.51,31.09,13.94,77.03,13.66,107.12-1.88ZM1012.64,1069.66c19.57-10.75,34.83-26.88,43.46-47.51,8.69-20.78,6.68-40.51-6.71-58.57-8.95-12.07-18.17-23.58-28.68-34.11-8.31-8.33-19.13-12.49-30.75-11.45l-52.22,4.64c-10.66.95-20.09,5.9-27.04,14.14-12.07,14.33-22.75,29.2-32.76,45.11-14.45,22.97-21.14,48.94-4.3,71.5,29.11,39.01,97.24,39.19,138.99,16.25ZM176.67,939.94c0-7.39-5.99-13.37-13.37-13.37s-13.37,5.99-13.37,13.37,5.99,13.37,13.37,13.37,13.37-5.99,13.37-13.37ZM629.69,952.23c0-6.81-5.52-12.33-12.33-12.33s-12.33,5.52-12.33,12.33,5.52,12.33,12.33,12.33,12.33-5.52,12.33-12.33ZM209.06,964.12c0-4.44-3.6-8.04-8.04-8.04s-8.04,3.6-8.04,8.04,3.6,8.04,8.04,8.04,8.04-3.6,8.04-8.04ZM1100.61,992.75c0-5.48-4.44-9.92-9.92-9.92s-9.92,4.44-9.92,9.92,4.44,9.92,9.92,9.92,9.92-4.44,9.92-9.92ZM190.32,1003.49c0-7.25-5.88-13.12-13.12-13.12s-13.12,5.88-13.12,13.12,5.88,13.12,13.12,13.12,13.12-5.88,13.12-13.12ZM625.26,999.71c0-4.87-3.95-8.82-8.82-8.82s-8.82,3.95-8.82,8.82,3.95,8.82,8.82,8.82,8.82-3.95,8.82-8.82ZM849.31,1005.46c0-4.81-3.9-8.71-8.71-8.71s-8.71,3.9-8.71,8.71,3.9,8.71,8.71,8.71,8.71-3.9,8.71-8.71ZM812.47,1027.65c0-9.28-7.52-16.8-16.8-16.8s-16.8,7.52-16.8,16.8,7.52,16.8,16.8,16.8,16.8-7.52,16.8-16.8ZM603.91,1035.6c0-6.79-5.5-12.29-12.29-12.29s-12.29,5.5-12.29,12.29,5.5,12.29,12.29,12.29,12.29-5.5,12.29-12.29ZM644.3,1043.19c0-5.25-4.26-9.51-9.51-9.51s-9.51,4.26-9.51,9.51,4.26,9.51,9.51,9.51,9.51-4.26,9.51-9.51ZM1086.32,1046.38c0-5.9-4.79-10.69-10.69-10.69s-10.69,4.79-10.69,10.69,4.79,10.69,10.69,10.69,10.69-4.79,10.69-10.69ZM847.08,1051.08c0-5.32-4.31-9.63-9.63-9.63s-9.63,4.31-9.63,9.63,4.31,9.63,9.63,9.63,9.63-4.31,9.63-9.63ZM208.64,1057.41c0-4.72-3.83-8.54-8.54-8.54s-8.54,3.83-8.54,8.54,3.83,8.54,8.54,8.54,8.54-3.83,8.54-8.54ZM567.76,1073.97c0-6.75-5.47-12.22-12.22-12.22s-12.22,5.47-12.22,12.22,5.47,12.22,12.22,12.22,12.22-5.47,12.22-12.22ZM684.77,1075.23c0-7.28-5.9-13.19-13.19-13.19s-13.19,5.9-13.19,13.19,5.9,13.19,13.19,13.19,13.19-5.9,13.19-13.19ZM805.28,1074.46c0-6.86-5.56-12.42-12.42-12.42s-12.42,5.56-12.42,12.42,5.56,12.42,12.42,12.42,12.42-5.56,12.42-12.42ZM622.74,1079.57c0-6.43-5.22-11.65-11.65-11.65s-11.65,5.22-11.65,11.65,5.22,11.65,11.65,11.65,11.65-5.22,11.65-11.65ZM746.28,1077.23c0-5.01-4.06-9.06-9.06-9.06s-9.06,4.06-9.06,9.06,4.06,9.06,9.06,9.06,9.06-4.06,9.06-9.06ZM869.57,1081.41c0-5.03-4.08-9.11-9.11-9.11s-9.11,4.08-9.11,9.11,4.08,9.11,9.11,9.11,9.11-4.08,9.11-9.11ZM412.66,1084.21c0-5.08-4.12-9.2-9.2-9.2s-9.2,4.12-9.2,9.2,4.12,9.2,9.2,9.2,9.2-4.12,9.2-9.2Z"/>
  <g>
    <path class="cls-9" d="M243.17,928.61c-21.92,10.35-37.53,7.69-54.65-8.13-19.38-17.9-28.77-43.69-22.62-69.69,2.64-11.19,6.91-21.39,12.53-31.45,10.77-19.27,22.83-36.99,36.73-54.12,7.51-9.25,16.27-16.97,27.22-21.78s21.96-7.75,33.5-9.62c11.31-1.83,21.11,2.36,28.53,10.92,14.03,16.17,27.05,32.78,39.4,50.32,7.02,9.97,9.05,21.55,5.25,33.01l-15.43,46.53c-3.16,9.54-10.59,16.3-19.61,20.56l-70.85,33.44ZM251.54,879.93c30.82-.59,56.34-32.54,50.68-62.99-3.6-19.39-20.67-31.05-40.02-27.52-27,4.93-49.46,35.61-43.73,64.13,3.17,15.81,16.19,26.7,33.07,26.38Z"/>
    <path class="cls-9" d="M392.56,944.76l-37.62-39.61c-6.44-6.78-8.5-16.85-5.53-25.84l16.33-49.43c7.83-23.71,40.16-36.46,60.59-28.12,17.35,7.09,32.51,18.1,44.59,32.08,19.68,22.77,18.01,54.74-4.08,75.28-14.53,13.51-29.95,25.72-46.07,37.58-8.85,6.51-20.25,6.43-28.2-1.94ZM423.8,904.16c16.57-6.64,24.62-25.08,19.56-41.32-2.85-9.17-9.66-15.46-17.05-18.13-9.29-3.35-18.48-1.99-26.2,3.5-13.66,9.69-18.54,28.44-10.67,43.28,6.57,12.39,20.81,18.11,34.36,12.68Z"/>
    <path class="cls-9" d="M408.18,778.6c-8.95,5.39-18.08,8.75-27.57,12.1-8.81,3.1-18.57.54-24.48-6.98l-39.08-49.71c-5.24-6.66-7.61-15.48-6.01-24.05,2.66-14.27,5.96-28.24,11.31-41.43,6.53-16.12,21.57-24.58,38.8-22.31,27.85,3.67,55.14,30.05,65.95,55.78,11.41,27.17,6.92,61.05-18.92,76.61ZM395.15,733.59c5.93-16.5-2.24-34.85-17.28-42.25-12.64-6.22-26.4-.46-30.85,12.94-5.02,15.12,1.61,32.87,15.48,40.88,12.36,7.14,27.61,2.42,32.64-11.57Z"/>
    <path class="cls-30" d="M1093.28,962.53c-10.02,5.09-21.35,3.4-28.01-4.82l-29.05-35.87c-5.7-7.04-5.55-16.77-.91-24.56,5.67-9.53,11.85-18.26,19.84-26.29,11.44-11.5,29.84-15.31,45.02-9.04,9.17,3.79,15.24,12.91,17.31,22.58,5.61,26.22.37,65.53-24.2,78.01ZM1090.56,925.95c6.21-8.15,6.64-19.66,1.62-27.98-2.7-4.48-7.31-6.98-11.69-7.12-4.91-.16-9.14,2.21-12.4,6.41-6.67,8.6-6.27,21.28,1,29.59,2.87,3.28,7.22,5.13,11.29,4.93,3.31-.16,7.54-2.36,10.18-5.83Z"/>
    <circle class="cls-19" cx="401.11" cy="581.64" r="20.79"/>
    <circle class="cls-1" cx="995.14" cy="528.7" r="20.04"/>
    <circle class="cls-12" cx="455.43" cy="669.03" r="17.32"/>
    <circle class="cls-21" cx="787.82" cy="671.01" r="16.93"/>
    <circle class="cls-4" cx="218.04" cy="552.42" r="16.94"/>
    <path class="cls-18" d="M170.49,781.88c-10.75-2-15.56-12.74-12.17-22.02s13.4-13.96,22.84-9.87c7.87,3.4,11.45,12.16,9.1,19.92s-10.22,13.75-19.77,11.97Z"/>
    <circle class="cls-14" cx="795.67" cy="1027.65" r="16.8"/>
    <circle class="cls-3" cx="631.41" cy="389.97" r="16.77"/>
    <circle class="cls-3" cx="647.06" cy="182.36" r="16.78"/>
    <circle class="cls-3" cx="624.45" cy="301.07" r="16.68"/>
    <circle class="cls-3" cx="931.49" cy="161.78" r="16.19"/>
    <circle class="cls-28" cx="595.06" cy="209.3" r="16.14"/>
    <circle class="cls-4" cx="296.26" cy="580.32" r="16.08"/>
    <circle class="cls-14" cx="1099.44" cy="597.61" r="15.89"/>
    <circle class="cls-3" cx="867.6" cy="605.48" r="15.93"/>
    <circle class="cls-18" cx="553.78" cy="873" r="15.69"/>
    <circle class="cls-22" cx="1094.57" cy="709.67" r="15.68"/>
    <circle class="cls-7" cx="1092.24" cy="534.18" r="15.63"/>
    <circle class="cls-10" cx="730.04" cy="856.57" r="15.42"/>
    <circle class="cls-6" cx="1057.39" cy="749.45" r="15.37"/>
    <circle class="cls-7" cx="1090.91" cy="476.24" r="15.07"/>
    <circle class="cls-22" cx="439.87" cy="529.81" r="14.96"/>
    <circle class="cls-6" cx="625.91" cy="868.22" r="14.77"/>
    <circle class="cls-3" cx="861.02" cy="167.83" r="14.76"/>
    <circle class="cls-28" cx="371.03" cy="157.12" r="14.63"/>
    <circle class="cls-4" cx="161.76" cy="564.46" r="14.65"/>
    <circle class="cls-21" cx="436.87" cy="150.54" r="14.42"/>
    <circle class="cls-3" cx="821.01" cy="580.63" r="14.37"/>
    <circle class="cls-6" cx="596.87" cy="352.58" r="14.37"/>
    <circle class="cls-18" cx="163.3" cy="939.94" r="13.37"/>
    <circle class="cls-15" cx="236.74" cy="502.18" r="13.33"/>
    <circle class="cls-28" cx="671.58" cy="1075.23" r="13.19"/>
    <circle class="cls-18" cx="177.2" cy="1003.49" r="13.12"/>
    <circle class="cls-24" cx="450.37" cy="779.45" r="12.56"/>
    <circle class="cls-10" cx="894.99" cy="645.84" r="12.48"/>
    <circle class="cls-7" cx="659.15" cy="440.88" r="12.48"/>
    <circle class="cls-2" cx="792.86" cy="1074.46" r="12.42"/>
    <circle class="cls-3" cx="692.26" cy="156.53" r="12.36"/>
    <circle class="cls-24" cx="617.36" cy="952.23" r="12.33"/>
    <circle class="cls-5" cx="591.63" cy="1035.6" r="12.29"/>
    <circle class="cls-2" cx="1071.81" cy="797.77" r="12.33"/>
    <circle class="cls-12" cx="555.53" cy="1073.97" r="12.22"/>
    <circle class="cls-7" cx="784.64" cy="490.89" r="12.21"/>
    <circle class="cls-22" cx="456.25" cy="479.43" r="12.12"/>
    <circle class="cls-4" cx="186.57" cy="512.86" r="12"/>
    <circle class="cls-7" cx="1046.28" cy="516.91" r="11.87"/>
    <circle class="cls-4" cx="611.09" cy="1079.57" r="11.65"/>
    <circle class="cls-22" cx="564.96" cy="165.88" r="11.55"/>
    <circle class="cls-3" cx="627.58" cy="251.29" r="11.45"/>
    <circle class="cls-24" cx="597.53" cy="908.37" r="11.37"/>
    <circle class="cls-21" cx="1105.49" cy="827.18" r="11.44"/>
    <circle class="cls-12" cx="512.74" cy="847.14" r="11.33"/>
    <path class="cls-3" d="M929.94,600.46c-2.15,5.17-6.73,7.44-11.38,7.21-5.03-.24-9.07-3.73-9.88-8.72s.99-9.91,5.97-12.4c4.04-2.02,8.91-1.53,12.27,1.02,3.61,2.74,5.05,8.01,3.02,12.88Z"/>
    <circle class="cls-6" cx="694.48" cy="884.12" r="11.04"/>
    <circle class="cls-15" cx="582.66" cy="260.35" r="11.02"/>
    <circle class="cls-7" cx="658.28" cy="338.32" r="10.98"/>
    <circle class="cls-3" cx="1107.54" cy="355.88" r="10.68"/>
    <circle class="cls-2" cx="441.63" cy="613.15" r="10.72"/>
    <circle class="cls-21" cx="1075.63" cy="1046.38" r="10.69"/>
    <g>
      <circle class="cls-3" cx="898.33" cy="201.6" r="13.39"/>
      <circle class="cls-3" cx="835.95" cy="203.54" r="10.63"/>
    </g>
    <circle class="cls-22" cx="468.46" cy="573.48" r="10.58"/>
    <circle class="cls-7" cx="1108.82" cy="418.74" r="10.31"/>
    <circle class="cls-21" cx="648.24" cy="907.3" r="10.24"/>
    <circle class="cls-24" cx="460.42" cy="725.11" r="10.16"/>
    <circle class="cls-23" cx="776.61" cy="595.42" r="10.08"/>
    <circle class="cls-7" cx="788.92" cy="540.98" r="10.01"/>
    <circle class="cls-22" cx="1090.69" cy="992.75" r="9.92"/>
    <circle class="cls-2" cx="772.33" cy="822.34" r="9.9"/>
    <circle class="cls-10" cx="577.02" cy="304.17" r="9.66"/>
    <circle class="cls-14" cx="837.45" cy="1051.08" r="9.63"/>
    <circle class="cls-6" cx="1102.46" cy="766.52" r="9.74"/>
    <circle class="cls-10" cx="413.4" cy="193.4" r="9.66"/>
    <circle class="cls-2" cx="149.17" cy="486.24" r="9.55"/>
    <circle class="cls-10" cx="634.79" cy="1043.19" r="9.51"/>
    <circle class="cls-2" cx="770.3" cy="721.49" r="9.45"/>
    <circle class="cls-21" cx="1101.96" cy="650.4" r="9.34"/>
    <circle class="cls-3" cx="806.1" cy="162.48" r="9.24"/>
    <circle class="cls-12" cx="403.46" cy="1084.21" r="9.2"/>
    <circle class="cls-7" cx="955.53" cy="563.51" r="9.18"/>
    <circle class="cls-14" cx="860.46" cy="1081.41" r="9.11"/>
    <circle class="cls-15" cx="296.95" cy="144.49" r="9.09"/>
    <circle class="cls-6" cx="737.21" cy="1077.23" r="9.06"/>
    <circle class="cls-4" cx="265.84" cy="544.07" r="9.05"/>
    <circle class="cls-15" cx="670.89" cy="855.02" r="8.77"/>
    <circle class="cls-2" cx="843.44" cy="647.9" r="8.83"/>
    <circle class="cls-4" cx="348.86" cy="585.93" r="8.71"/>
    <circle class="cls-5" cx="616.44" cy="999.71" r="8.82"/>
    <circle class="cls-23" cx="807.7" cy="628.03" r="8.73"/>
    <circle class="cls-2" cx="149.56" cy="308.9" r="8.71"/>
    <circle class="cls-15" cx="840.6" cy="1005.46" r="8.71"/>
    <circle class="cls-3" cx="1109.65" cy="294.42" r="8.66"/>
    <circle class="cls-12" cx="483.2" cy="807.55" r="8.61"/>
    <circle class="cls-22" cx="608.16" cy="439.96" r="8.55"/>
    <circle class="cls-18" cx="200.09" cy="1057.41" r="8.54"/>
    <circle class="cls-18" cx="143.81" cy="676.04" r="8.47"/>
    <circle class="cls-2" cx="568.79" cy="433.43" r="8.31"/>
    <circle class="cls-12" cx="483.77" cy="754.35" r="8.29"/>
    <circle class="cls-2" cx="499.69" cy="473.2" r="8.22"/>
    <circle class="cls-24" cx="159.11" cy="615.29" r="8.16"/>
    <circle class="cls-5" cx="1065.3" cy="570.89" r="8.13"/>
    <circle class="cls-10" cx="322.02" cy="175.08" r="8.09"/>
    <circle class="cls-12" cx="156.05" cy="723.15" r="8.07"/>
    <circle class="cls-12" cx="201.02" cy="964.12" r="8.04"/>
    <circle class="cls-10" cx="515.87" cy="144.63" r="7.8"/>
    <circle class="cls-24" cx="315.82" cy="620.57" r="7.68"/>
    <circle class="cls-2" cx="585.44" cy="402.23" r="7.74"/>
    <circle class="cls-7" cx="1082.25" cy="324.34" r="7.73"/>
    <circle class="cls-5" cx="386.05" cy="625.48" r="7.62"/>
    <circle class="cls-5" cx="415.14" cy="647.64" r="7.47"/>
    <circle class="cls-22" cx="1032.26" cy="562.15" r="7.26"/>
    <circle class="cls-5" cx="349.19" cy="622.12" r="7.15"/>
    <circle class="cls-2" cx="604.07" cy="163.24" r="7.1"/>
    <circle class="cls-22" cx="475.51" cy="521.04" r="7.12"/>
    <circle class="cls-24" cx="154.04" cy="819.58" r="7.08"/>
    <circle class="cls-5" cx="507.65" cy="886.8" r="7.05"/>
    <circle class="cls-22" cx="538.12" cy="452.07" r="6.71"/>
    <circle class="cls-2" cx="1068.37" cy="838.81" r="6.72"/>
    <circle class="cls-1" cx="647.99" cy="221.57" r="5.67"/>
    <circle class="cls-21" cx="734.94" cy="894.69" r="5.41"/>
    <g>
      <path class="cls-27" d="M703.38,672.09h-119.2c-2.37.01-4.25,2.74-4.24,4.91l.06,70.86c0,3,3.18,5.16,6.1,4.52l142.95.21c10.28.02,18.18,7.68,18.21,17.28l.08,20.61c.04,9.61-7.34,15.85-16.79,17.46l-188.38-.09c-12.52,0-22.94-9.37-22.94-22.2l.08-277.17c0-11.22,10.07-21.11,21.16-21.12l185.31-.18c9.89,0,17.19,7.68,17.22,16.64l.09,21.4c.04,9.02-7.15,17.79-17.26,17.8l-141.7.12c-1.99,0-4.12,3.02-4.12,4.83l-.03,66.07c0,3.01,1.97,5.72,5.24,5.72l118.64.11c7.42,0,14,6.48,13.99,13.07l-.02,24.94c0,7.6-6.55,12.87-14.43,14.21ZM726.99,540.12l-145.5.89v2.14s145.52-.89,145.52-.89v-2.14ZM584,669.84v1.28s120,.17,120,.17v-1.28s-120-.17-120-.17ZM582.5,671l-.5.5.5.66.47-.64-.47-.52Z"/>
      <rect class="cls-16" x="581.49" y="540.57" width="145.51" height="2.14" transform="translate(-3.3 4.02) rotate(-.35)"/>
      <rect class="cls-16" x="643.36" y="610.56" width="1.28" height="120" transform="translate(-27.45 1313.63) rotate(-89.92)"/>
      <polygon class="cls-16" points="582.5 671 582.97 671.52 582.5 672.16 582 671.5 582.5 671"/>
    </g>
    <path class="cls-11" d="M251.54,879.93c-16.88.32-29.89-10.56-33.07-26.38-5.72-28.52,16.73-59.2,43.73-64.13,19.34-3.53,36.42,8.12,40.02,27.52,5.66,30.45-19.87,62.4-50.68,62.99Z"/>
    <g>
      <path class="cls-30" d="M1012.64,1069.66c-41.75,22.94-109.88,22.76-138.99-16.25-16.84-22.56-10.15-48.53,4.3-71.5,10.01-15.91,20.68-30.78,32.76-45.11,6.95-8.25,16.38-13.2,27.04-14.14l52.22-4.64c11.62-1.03,22.44,3.13,30.75,11.45,10.5,10.53,19.73,22.03,28.68,34.11,13.39,18.06,15.4,37.79,6.71,58.57-8.63,20.64-23.89,36.76-43.46,47.51ZM1007.49,1005.35c6.1-19.22-4.29-37.32-22.15-43.81-25.98-9.44-58.02,7.23-66.53,34.23-5.92,18.77,3.52,38.12,22.68,43.89,27.11,8.16,57.24-6.68,66.01-34.31Z"/>
      <path class="cls-20" d="M1007.49,1005.35c-8.76,27.63-38.9,42.48-66.01,34.31-19.16-5.77-28.6-25.12-22.68-43.89,8.51-27,40.55-43.67,66.53-34.23,17.86,6.49,28.25,24.6,22.15,43.81Z"/>
    </g>
    <g>
      <path class="cls-9" d="M366.08,1077.24c-30.09,15.54-76.03,15.82-107.12,1.88-41.86-18.78-60.27-67.29-35.26-106.51,8.64-13.55,20.11-24.52,34.22-32.7,18.3-10.61,37.05-19.6,56.83-26.93,9.96-3.69,21.13-2.57,28.4,4.92l39.83,41.1c8.01,8.27,13.31,18.1,13.44,29.94l.43,39.1c.24,21.36-11.75,39.38-30.78,49.2ZM284.83,1042.59c29.98,11.14,61.79-8.96,65.69-39.94,2.87-22.79-14.35-42.75-37.65-42.54-22.81.21-43.6,15.95-49.7,37.67-5.22,18.59,3.14,37.93,21.65,44.8Z"/>
      <path class="cls-9" d="M489.62,1078.01c-23.54,8.2-47.7,7.89-63.41-11.33-7.68-9.4-12.21-21.22-12.2-33.68v-42.98c.01-12.27,6.27-21.96,15.67-29.45l49.41-39.39c14.53-11.58,42.36-13.67,61.13-11.54,13.58,1.54,25.32,7.94,33.8,18.32,27.64,33.82,5.91,78.45-21.26,107.82-17.54,18.96-38.28,33.58-63.13,42.23ZM499.6,1030.91c19.94-4.72,34.56-21.84,36.38-41.72.89-9.66-2.77-18.7-8.93-24.78s-15.47-9.34-25.32-8.43c-21.46,1.98-39.32,20.25-40.99,41.78-.82,10.62,3.12,20.43,10.35,26.73s17.71,8.98,28.51,6.42Z"/>
      <path class="cls-11" d="M284.83,1042.59c-18.51-6.88-26.88-26.21-21.65-44.8,6.1-21.72,26.89-37.46,49.7-37.67,23.29-.21,40.52,19.74,37.65,42.54-3.91,30.98-35.71,51.08-65.69,39.94Z"/>
      <path class="cls-11" d="M499.6,1030.91c-10.81,2.56-21.06.07-28.51-6.42s-11.17-16.11-10.35-26.73c1.67-21.53,19.54-39.8,40.99-41.78,9.85-.91,18.87,2.06,25.32,8.43s9.82,15.13,8.93,24.78c-1.82,19.87-16.45,37-36.38,41.72Z"/>
    </g>
    <g>
      <path class="cls-30" d="M876.53,955.06c-21.35,30.25-71.13,36.31-89.23,10.42-10.15-14.53-18.55-30.12-26.46-46.16-14.73-29.89,8.66-63.33,35.54-78.85,8.55-4.94,17.76-6.6,27.62-6.72,18.08-.22,35.77-.27,44.81,17.5l25.86,50.79c5.23,10.26,3.75,22-2.59,30.97l-15.56,22.05ZM840.74,935.16c12.68-9.75,16.99-26.42,12.29-40.98-3.29-10.19-11.24-17.24-20.27-19.7-10.71-2.91-20.75.33-28.66,7.64-15.62,14.42-16.16,39.46.49,53.33,10.24,8.54,25.21,8.11,36.15-.3Z"/>
      <path class="cls-25" d="M840.74,935.16c-10.94,8.41-25.91,8.84-36.15.3-16.64-13.88-16.1-38.91-.49-53.33,7.91-7.3,17.95-10.55,28.66-7.64,9.03,2.45,16.99,9.51,20.27,19.7,4.7,14.56.39,31.23-12.29,40.98Z"/>
    </g>
    <g>
      <path class="cls-8" d="M915.68,396.57c-10.08,17.5-36.42,18.01-58.64,19.35-11.25.68-21.38-4.67-26.53-14.56l-31.8-60.97c-5.02-9.62-4.67-20.82.38-30.36l33.53-63.26c2.93-5.52,6.74-9.75,11.01-14.21,9.01-9.38,22.14-13.06,34.97-7.87,17.49,7.08,33.65,19.38,43.78,35.78s17.38,31.99,25.46,48.61c5.22,10.72,5.16,22.72-.78,33.03l-31.39,54.45ZM891.71,360.01c20.41-15.67,24.85-44.69,11.15-65.53-11.07-16.83-32.08-20.83-48.01-8.35-19.68,15.42-24.58,44.57-10.73,65.47,10.77,16.25,31.67,20.62,47.58,8.4Z"/>
      <path class="cls-26" d="M891.71,360.01c-15.91,12.22-36.81,7.85-47.58-8.4-13.85-20.9-8.95-50.05,10.73-65.47,15.93-12.48,36.94-8.49,48.01,8.35,13.7,20.83,9.26,49.86-11.15,65.53Z"/>
    </g>
    <g>
      <path class="cls-30" d="M819.36,817.27c-24.72-.29-37.04-26.97-33.48-53.41,4.72-35.02,27-81.52,62.02-89.74,30.17-7.07,58.54,10.29,69.96,38.08,4.89,11.89,6.06,23.17-1.59,34.3l-39.41,57.31c-5.07,7.38-12.78,13.98-21.94,13.87l-35.57-.41ZM882.72,738.53c.45-9.08-3.5-17.29-10.84-21.31-7.98-4.38-17.73-3.34-25.6,1.21-13.88,8.03-22.96,23.36-22.32,39.45.31,7.71,4.39,14.56,9.69,18.2,6.27,4.3,14.08,4.61,21.37,1.66,15.54-6.28,26.82-21.69,27.7-39.2Z"/>
      <path class="cls-25" d="M882.72,738.53c-.87,17.5-12.16,32.91-27.7,39.2-7.28,2.95-15.1,2.64-21.37-1.66-5.3-3.64-9.39-10.49-9.69-18.2-.64-16.09,8.44-31.42,22.32-39.45,7.87-4.55,17.62-5.58,25.6-1.21,7.34,4.03,11.29,12.24,10.84,21.31Z"/>
    </g>
    <path class="cls-11" d="M423.8,904.16c-13.55,5.43-27.8-.29-34.36-12.68-7.87-14.84-2.99-33.59,10.67-43.28,7.73-5.48,16.92-6.85,26.2-3.5,7.39,2.67,14.19,8.96,17.05,18.13,5.06,16.25-2.99,34.68-19.56,41.32Z"/>
    <g>
      <g>
        <path class="cls-30" d="M385.36,379.93c-22.07,5.49-43.27,9.84-65.28,12.83-11.9,1.61-22.48-4.75-27.64-15.26-8.34-16.97-15.38-33.89-22.28-51.6-4.01-10.31-3.86-21.63,1.4-31.51,13.61-25.6,27.8-50.08,43.05-74.7,13.01-21,31.74-36.95,55.22-24.34,23.85,12.82,48.45,43.38,60.92,67.94,9.77,19.25,10.5,40.42,1.86,60.41-5.87,13.58-13.15,26.1-21.46,38.46-5.99,8.9-14.71,15.03-25.78,17.79ZM373.32,335.8c23.31-20.53,28.28-57.68,4.28-75.5-9.25-6.87-21.68-8.56-33.15-4.44-23.14,8.3-38.58,32.35-36.76,56.97.98,13.25,7.64,25.42,19.38,30.99,15.44,7.32,33.27,3.41,46.25-8.02Z"/>
        <path class="cls-25" d="M373.32,335.8c-12.98,11.43-30.82,15.34-46.25,8.02-11.74-5.57-18.4-17.74-19.38-30.99-1.82-24.62,13.62-48.67,36.76-56.97,11.47-4.12,23.9-2.43,33.15,4.44,24,17.82,19.04,54.98-4.28,75.5Z"/>
      </g>
      <g>
        <path class="cls-30" d="M394.18,537.06c-16.6,19.24-39.14,26.79-63.14,17.71-21.94-8.31-41.32-22.79-54.71-41.8-11.7-16.61-13.68-36.56-4.82-54.53,5.58-11.33,11.77-21.64,18.82-32.15,4.97-7.41,12.4-13.7,21.51-15.44l71.98-13.8c10.61-2.03,20.5,2.09,26.36,10.89,6.45,9.7,11.4,20.39,15.28,31.44s3.91,22.47.82,33.91c-6.3,23.38-16.28,45.45-32.09,63.78ZM351.14,511.31c19.2-6.21,31.87-24.55,32.34-44.14.45-18.52-14.19-32.23-32.73-30.4-21.6,2.13-39.04,20.34-40.8,42.06-.88,10.9,3.9,21.35,11.51,27.4,8.14,6.47,18.95,8.56,29.68,5.09Z"/>
        <path class="cls-25" d="M351.14,511.31c-10.74,3.47-21.54,1.38-29.68-5.09-7.62-6.05-12.4-16.49-11.51-27.4,1.76-21.72,19.2-39.93,40.8-42.06,18.55-1.83,33.18,11.88,32.73,30.4-.47,19.59-13.14,37.94-32.34,44.14Z"/>
      </g>
    </g>
    <g>
      <path class="cls-30" d="M951.19,905.54l-17.95.99c-9.51.53-18.98-3.88-23.39-12.44l-23.77-46.12c-5.05-9.79-4.17-21.69,1.78-31.31,13.42-21.7,27.49-42.39,43.28-62.34,5.62-7.1,13.86-12.75,22.78-12.42l44.68,1.63c12.95.47,23.39,8.88,29.67,20.38,12.43,22.74,18.23,48.76,16.29,74.75-1.22,16.33-8.83,29.87-18.01,42.83-8.05,11.36-19.04,18.57-33.21,19.95l-42.17,4.09ZM994.24,850.75c12.06-15,15.31-34.92,6.68-51.5-7.34-14.11-21.42-20.8-37.06-18.25-24.81,4.04-45.37,33.18-38.87,59.94,4.11,16.89,18.65,27.74,36.12,27.04,13-.52,24.73-6.78,33.13-17.23Z"/>
      <path class="cls-25" d="M994.24,850.75c-8.4,10.44-20.13,16.71-33.13,17.23-17.46.7-32.01-10.15-36.12-27.04-6.51-26.76,14.05-55.9,38.87-59.94,15.64-2.55,29.72,4.14,37.06,18.25,8.62,16.58,5.38,36.5-6.68,51.5Z"/>
    </g>
    <g>
      <g>
        <path class="cls-8" d="M760.92,318.44c-19.14,1.89-37.22,3.24-55.8,2.21-15.53-.86-29.21-8.18-38.75-20.03-30.28-37.62,17.69-112.93,63.14-129.98,19.3-7.24,39.23-3.24,54.58,10.42,11.93,10.62,21.1,24.06,26.35,39.32,3.79,11,3.58,22.52-1.01,33.22-7.68,17.87-16.46,34.66-26.52,51.27-4.59,7.57-12.84,12.65-22,13.55ZM771.26,240c-1.62-16.82-16.34-27.87-33.52-24.72-19.94,3.65-35.77,22.1-37.15,42.44-1.06,15.69,9.35,28.55,24.3,30.26,27.1,3.1,48.81-22.57,46.37-47.98Z"/>
        <path class="cls-13" d="M771.26,240c2.44,25.42-19.27,51.08-46.37,47.98-14.94-1.71-25.35-14.57-24.3-30.26,1.37-20.34,17.21-38.79,37.15-42.44,17.18-3.15,31.9,7.9,33.52,24.72Z"/>
      </g>
      <g>
        <path class="cls-8" d="M756.54,460.08c-33.51-5.97-67.99-24.84-82.97-54.65-7.64-15.2-5.68-31.74,4.69-45.38,10.21-13.42,26.03-21.79,43.1-22.69l38.52-2.02c8.88-.47,17.92,4.28,22.85,12.14,11.66,18.61,21.24,38.09,30.29,58.33,3.09,6.9,3.8,15.38,1.16,22.32-8.82,23.16-32.77,36.37-57.65,31.94ZM750.02,423.62c7.8-.5,13.81-4.3,17.15-9.27,3.93-5.85,4.74-12.62,2.84-19.52-4.09-14.87-19.33-24.71-34.69-22.49-14.33,2.07-22.92,15.88-18.08,29.56s18.1,22.66,32.78,21.72Z"/>
        <path class="cls-13" d="M750.02,423.62c-14.68.94-28.02-8.29-32.78-21.72s3.75-27.49,18.08-29.56c15.36-2.22,30.6,7.62,34.69,22.49,1.9,6.9,1.09,13.67-2.84,19.52-3.34,4.97-9.35,8.77-17.15,9.27Z"/>
      </g>
    </g>
    <g>
      <path class="cls-8" d="M987.04,316.76c-8.72-.1-16.84-4.92-21.72-12.24-9.54-14.3-17.09-29.51-24.52-45.2-4.97-10.49-5.66-21.94-2.59-33.23,5.48-20.16,16.92-38.55,32.78-51.86,33.26-27.9,75.34-14.26,101.93,15.83,13.03,14.75,20.77,32.07,22.05,52,2.21,34.33-21.37,66.43-55.69,72.09-17.45,2.88-34.61,2.82-52.23,2.63ZM1054.42,241.72c0-21.04-17.05-38.09-38.09-38.09s-38.09,17.05-38.09,38.09,17.05,38.09,38.09,38.09,38.09-17.05,38.09-38.09Z"/>
      <circle class="cls-26" cx="1016.33" cy="241.72" r="38.09"/>
      <g>
        <path class="cls-17" d="M1052.29,473.13c-21.47,23.52-51.42,24.4-73.86,4.31-15.94-14.27-29.91-29.78-43.33-46.41-6.79-8.42-8.43-19.66-2.99-29.12l30.53-53.11c5.71-9.94,15.56-14.91,26.77-15.45l43.54-2.08c26.69-1.28,46.03,21.12,49.39,46.32,4.22,31.73-8.33,71.75-30.04,95.54ZM1031.68,432c12.13-13,14.09-32.68,4.89-47.44-9.39-15.05-28.3-19.29-43.29-10.26-11.8,7.11-18.08,19.6-17.63,33.15.42,12.36,7.34,24.76,18.92,30.86,12.57,6.62,27.06,4.45,37.11-6.32Z"/>
        <path class="cls-26" d="M1031.68,432c-10.05,10.77-24.53,12.94-37.11,6.32-11.59-6.1-18.5-18.5-18.92-30.86-.46-13.55,5.83-26.04,17.63-33.15,14.99-9.03,33.91-4.79,43.29,10.26,9.2,14.76,7.24,34.44-4.89,47.44Z"/>
      </g>
    </g>
    <g>
      <path class="cls-19" d="M771.68,1000.69c-7.03,21.85-20.77,44.21-43.3,50.58-18.09,5.12-36.21,1.27-51.88-8.79-24.97-16.04-38.87-45.52-31.84-75.1,6.13-25.79,26.09-47.04,50.76-55.52,20.42-7.02,41.2.49,52.57,18.16l21.39,37.55c5.87,10.31,5.92,21.86,2.29,33.12ZM725.44,1007.86c13.18-10.73,16.27-29.17,8.21-43.36-4.62-8.13-12.52-13.25-20.6-14.22-9.53-1.14-18.07,2.42-24.36,9.43-11.34,12.63-12.18,31.64-1.05,44.54,9.66,11.19,25.89,13.3,37.79,3.61Z"/>
      <path class="cls-25" d="M725.44,1007.86c-11.9,9.69-28.13,7.57-37.79-3.61-11.14-12.9-10.29-31.9,1.05-44.54,6.29-7,14.83-10.56,24.36-9.43,8.08.97,15.98,6.09,20.6,14.22,8.06,14.19,4.96,32.63-8.21,43.36Z"/>
    </g>
    <g>
      <path class="cls-30" d="M1009.5,727.99l-50.68-2.65c-10.9-.57-19.26-6.66-24.18-16.03-6.12-11.66-12.02-23.72-12.29-37.32-.27-13.9,4.21-27.03,10.31-39.32,12.75-25.65,36.2-56.27,66.43-55.41,23.27.66,45.77,10.93,60.94,28.63,16.09,18.77,20.43,44.23,13.58,67.92-5.34,18.47-17.42,33.78-32.58,45.15-9.07,6.8-19.62,9.65-31.54,9.03ZM990.88,694.65c25.41,2.43,49.82-24.38,45.3-50.62-2.48-14.39-13.67-24.39-28.17-24.94-22.5-.86-42.47,20.81-44.18,42.83-1.3,16.68,9.64,31.06,27.05,32.73Z"/>
      <path class="cls-25" d="M990.88,694.65c-17.41-1.66-28.35-16.05-27.05-32.73,1.71-22.03,21.68-43.69,44.18-42.83,14.5.55,25.68,10.56,28.17,24.94,4.53,26.24-19.88,53.05-45.3,50.62Z"/>
    </g>
    <path class="cls-11" d="M395.15,733.59c-5.03,14-20.28,18.71-32.64,11.57-13.87-8.01-20.5-25.76-15.48-40.88,4.45-13.4,18.21-19.16,30.85-12.94,15.04,7.4,23.2,25.75,17.28,42.25Z"/>
    <g>
      <path class="cls-17" d="M960.87,507.85c-6.16,23.09-30.41,45.79-51.42,57.42-20.89,11.56-44.48,8.38-62.17-7.91-29.22-26.91-47.17-79.3-18.56-111.62,5.37-6.06,12.5-11.21,20.72-12.14l44.57-4.99c8.14-.91,16.8,1.92,22.69,7.8,13.45,13.41,25.76,27.38,37.53,42.25,6.74,8.52,9.45,18.63,6.64,29.18ZM917.55,498.54c0-17.45-14.14-31.59-31.59-31.59s-31.59,14.14-31.59,31.59,14.14,31.59,31.59,31.59,31.59-14.14,31.59-31.59Z"/>
      <circle class="cls-13" cx="885.96" cy="498.54" r="31.59"/>
    </g>
    <g>
      <circle class="cls-15" cx="464.71" cy="301.88" r="7.98"/>
      <g>
        <path class="cls-30" d="M542.98,419.07c-15.2,16.14-42.51,29.71-64.9,31.11-14.81.92-27.98-4.91-35.83-17.54-6.56-10.55-11.85-21.61-16.67-33.22-3.94-9.49-3.86-19.89.83-29.09,6.91-13.57,16.4-25.08,28.39-34.54,19.36-15.26,46.67-29.57,71.06-31.89,35.13-3.35,41.15,45.66,36.77,75.98-2.19,15.13-9.23,28.13-19.65,39.19ZM526.69,367.2c-.03-7.61-2.88-14.15-8.3-18.34-5.61-4.34-13.09-5.73-20.53-3.82-17.58,4.52-31.2,20.6-32.73,38.7-.65,7.66,1.99,14.17,6.71,18.93s11.15,6.71,18.11,5.99c19.6-2,36.82-22.43,36.73-41.48Z"/>
        <path class="cls-25" d="M526.69,367.2c.08,19.05-17.13,39.47-36.73,41.48-6.96.71-13.64-1.48-18.11-5.99-4.72-4.76-7.36-11.27-6.71-18.93,1.53-18.11,15.15-34.18,32.73-38.7,7.44-1.92,14.93-.53,20.53,3.82,5.41,4.19,8.26,10.73,8.3,18.34Z"/>
      </g>
      <g>
        <path class="cls-30" d="M534.44,282.87c-15.81,10.22-35.22,9.24-51.14,1-28.77-14.89-56.4-42.42-46.3-75.93,5.07-16.81,15.14-31.28,29.12-41.69,10.99-8.19,23.65-9.99,36.83-6.02,20.72,6.23,37.45,21.44,46.27,41.54,11.54,26.3,10.04,65.06-14.78,81.11ZM519.62,241.11c8.26-15.76,1.79-35.11-13.06-43.52-10.82-6.13-23.2-3.56-30.41,7-10.73,15.71-3.21,39,14.55,46.49,10.8,4.55,23.28.79,28.92-9.97Z"/>
        <path class="cls-25" d="M519.62,241.11c-5.64,10.76-18.12,14.52-28.92,9.97-17.75-7.49-25.27-30.78-14.55-46.49,7.21-10.56,19.59-13.13,30.41-7,14.85,8.41,21.32,27.76,13.06,43.52Z"/>
      </g>
    </g>
    <g>
      <path class="cls-9" d="M276.54,717.07l-50.5,14c-9.62,2.67-19.94,3.36-28.95-1.29-12.24-6.32-20.75-17.66-24.85-31.07-7.72-25.23-3.15-52.08,9.2-75.17,6.44-12.04,14.08-22.24,25.04-30.02,16.01-11.36,35.84-11.56,51.88.37,19.2,14.28,48.2,46.42,46.3,70.02-1,12.36-4.06,24.15-8.08,35.59-3.18,9.05-10.66,14.96-20.03,17.56ZM259.18,685.6c11.88-13.78,9.76-33.68-2.78-45.99-10.2-10-25.66-11.27-37.04-2.05-14.13,11.44-16.48,32.89-5.23,47.13,11.46,14.52,32.75,15.17,45.06.91Z"/>
      <path class="cls-11" d="M259.18,685.6c-12.31,14.27-33.59,13.62-45.06-.91-11.24-14.24-8.9-35.7,5.23-47.13,11.38-9.21,26.84-7.95,37.04,2.05,12.55,12.3,14.66,32.21,2.78,45.99Z"/>
    </g>
    <path class="cls-20" d="M1090.56,925.95c-2.64,3.47-6.87,5.68-10.18,5.83-4.07.19-8.42-1.66-11.29-4.93-7.27-8.3-7.67-20.99-1-29.59,3.26-4.2,7.49-6.57,12.4-6.41,4.38.14,8.99,2.64,11.69,7.12,5.02,8.32,4.59,19.83-1.62,27.98Z"/>
    <g>
      <path class="cls-30" d="M243.21,463.72c-11.54,8.6-25.2,12.73-39.11,13.29-21.24.85-39.84-10.73-48.02-30.07-3.48-8.22-5.58-16.66-6.42-25.74-1.83-19.62-1.87-39.1.98-58.53,3.49-23.77,18.21-43.3,43-44.21l37.37-1.38c10.52-.39,19.87,5.15,24.23,14.79,7.94,17.53,14.94,34.89,22,52.94,8.24,21.06-2.2,35.8-13.73,54.68-5.5,9-11.37,17.59-20.29,24.24ZM230.17,420.39c12.88-14.32,14.44-36.05,4.93-52.24-4.32-7.35-11.11-11.89-18.07-13.07-8.64-1.46-16.81,1.03-23.17,7.05-15.08,14.27-17.46,38.61-6.19,55.95,4.81,7.41,12.3,11.62,19.92,12.09,8.65.53,16.29-2.78,22.58-9.78Z"/>
      <path class="cls-30" d="M232.61,301.11c-14.14.46-27.05,1.62-40.37.38-18.33-1.71-31.93-15.92-36.27-33.53-3.63-14.76-2.64-29.45.59-44.45,6.73-31.33,27.79-58.12,57.48-70.28,12.5-5.12,26.22-6.74,38.77-1.87,17.28,6.72,30.93,19.76,40.23,35.57,6.72,11.42,6.99,24.97.37,36.55l-36.26,63.49c-5.09,8.9-13.94,13.8-24.54,14.14ZM226.52,267.24c21.93-7.57,36.86-34.76,33.24-57.89-1.37-8.78-6.64-16.44-13.13-19.94-7.92-4.27-16.93-4.48-25.17-.64-21.84,10.19-34.91,35.85-29.76,59.26,3.62,16.44,19.41,24.54,34.82,19.22Z"/>
      <path class="cls-25" d="M230.17,420.39c-6.29,7-13.94,10.31-22.58,9.78-7.62-.47-15.1-4.69-19.92-12.09-11.27-17.34-8.89-41.68,6.19-55.95,6.36-6.02,14.53-8.51,23.17-7.05,6.96,1.17,13.75,5.71,18.07,13.07,9.51,16.19,7.95,37.92-4.93,52.24Z"/>
      <path class="cls-25" d="M226.52,267.24c-15.41,5.32-31.2-2.77-34.82-19.22-5.15-23.4,7.93-49.07,29.76-59.26,8.24-3.84,17.25-3.63,25.17.64,6.49,3.5,11.76,11.16,13.13,19.94,3.61,23.13-11.31,50.33-33.24,57.89Z"/>
    </g>
  </g>
</svg>